<?xml version="1.0" encoding="UTF-8" standalone="no"?>
<!-- Created with Inkscape (http://www.inkscape.org/) -->

<svg
   width="132.62325mm"
   height="38.156925mm"
   viewBox="0 0 132.62325 38.156925"
   version="1.1"
   id="svg1"
   inkscape:version="1.3 (0e150ed6c4, 2023-07-21)"
   sodipodi:docname="php-pure.svg"
   xmlns:inkscape="http://www.inkscape.org/namespaces/inkscape"
   xmlns:sodipodi="http://sodipodi.sourceforge.net/DTD/sodipodi-0.dtd"
   xmlns="http://www.w3.org/2000/svg"
   xmlns:svg="http://www.w3.org/2000/svg">
  <sodipodi:namedview
     id="namedview1"
     pagecolor="#eaeaea"
     bordercolor="#000000"
     borderopacity="0.25"
     inkscape:showpageshadow="2"
     inkscape:pageopacity="0.0"
     inkscape:pagecheckerboard="0"
     inkscape:deskcolor="#c6ccdc"
     inkscape:document-units="mm"
     inkscape:zoom="1"
     inkscape:cx="173"
     inkscape:cy="43.5"
     inkscape:window-width="1920"
     inkscape:window-height="986"
     inkscape:window-x="-11"
     inkscape:window-y="-11"
     inkscape:window-maximized="1"
     inkscape:current-layer="layer1" />
  <defs
     id="defs1">
    <filter
       inkscape:collect="always"
       style="color-interpolation-filters:sRGB"
       id="filter22"
       x="-0.016793793"
       y="-0.042272059"
       width="1.0335876"
       height="1.0845441">
      <feGaussianBlur
         inkscape:collect="always"
         stdDeviation="0.17076676"
         id="feGaussianBlur22" />
    </filter>
  </defs>
  <g
     inkscape:label="Layer 1"
     inkscape:groupmode="layer"
     id="layer1"
     transform="translate(-1.1175414,-0.81189028)">
    <g
       id="g22"
       transform="matrix(2.2467177,0,0,2.2467177,-97.68547,-237.86157)">
      <ellipse
         style="opacity:1;mix-blend-mode:normal;fill:#2a0d96;fill-opacity:1;fill-rule:nonzero;stroke:#000000;stroke-width:0.368538;stroke-dasharray:none;stroke-dashoffset:0;stroke-opacity:1;paint-order:markers stroke fill"
         id="path1-6"
         cx="65.546906"
         cy="114.72377"
         rx="21.386034"
         ry="8.307436" />
      <path
         id="text5"
         style="font-size:13.3343px;opacity:0.693548;fill:#000000;fill-opacity:1;stroke:#803300;stroke-width:0;stroke-opacity:0;filter:url(#filter22)"
         sodipodi:type="inkscape:offset"
         inkscape:radius="0"
         inkscape:original="M 53.300781 113.7793 L 53.300781 123.47461 L 54.589844 123.47461 L 54.589844 119.86133 L 55.878906 119.86133 C 56.573401 119.86133 57.149707 119.77822 57.605469 119.61328 C 58.061231 119.444 58.45679 119.19165 58.791016 118.85742 C 59.060132 118.58831 59.268435 118.27281 59.416016 117.9082 C 59.567936 117.53925 59.642578 117.1387 59.642578 116.70898 C 59.642578 116.14471 59.541898 115.6795 59.337891 115.31055 C 59.138223 114.9416 58.853325 114.63218 58.484375 114.38477 C 58.171852 114.17642 57.813831 114.02518 57.410156 113.92969 C 57.006481 113.82985 56.51328 113.7793 55.931641 113.7793 L 53.300781 113.7793 z M 61.341797 113.7793 L 61.341797 123.47461 L 62.630859 123.47461 L 62.630859 118.72852 L 67.46875 118.72852 L 67.46875 123.47461 L 68.757812 123.47461 L 68.757812 113.7793 L 67.46875 113.7793 L 67.46875 117.58203 L 62.630859 117.58203 L 62.630859 113.7793 L 61.341797 113.7793 z M 71.363281 113.7793 L 71.363281 123.47461 L 72.652344 123.47461 L 72.652344 119.86133 L 73.941406 119.86133 C 74.635901 119.86133 75.210253 119.77822 75.666016 119.61328 C 76.121778 119.444 76.517337 119.19165 76.851562 118.85742 C 77.120679 118.58831 77.328982 118.27281 77.476562 117.9082 C 77.628484 117.53925 77.705078 117.1387 77.705078 116.70898 C 77.705078 116.14471 77.602445 115.6795 77.398438 115.31055 C 77.198769 114.9416 76.913872 114.63218 76.544922 114.38477 C 76.232399 114.17642 75.874378 114.02518 75.470703 113.92969 C 75.067028 113.82985 74.573826 113.7793 73.992188 113.7793 L 71.363281 113.7793 z M 54.589844 114.88672 L 55.867188 114.88672 C 56.275202 114.88672 56.612177 114.91775 56.876953 114.97852 C 57.14607 115.03494 57.383448 115.12911 57.591797 115.26367 C 57.830529 115.41993 58.009757 115.62173 58.126953 115.86914 C 58.244149 116.11655 58.302734 116.40796 58.302734 116.74219 C 58.302734 117.02867 58.258687 117.28753 58.171875 117.51758 C 58.089404 117.74763 57.946194 117.96548 57.742188 118.17383 C 57.538179 118.37784 57.27281 118.52755 56.947266 118.62305 C 56.621721 118.7142 56.198605 118.75977 55.677734 118.75977 L 54.589844 118.75977 L 54.589844 114.88672 z M 72.652344 114.88672 L 73.927734 114.88672 C 74.33575 114.88672 74.672724 114.91775 74.9375 114.97852 C 75.206617 115.03494 75.445948 115.12911 75.654297 115.26367 C 75.893029 115.41993 76.070304 115.62173 76.1875 115.86914 C 76.304696 116.11655 76.363281 116.40796 76.363281 116.74219 C 76.363281 117.02867 76.319234 117.28753 76.232422 117.51758 C 76.149951 117.74763 76.006742 117.96548 75.802734 118.17383 C 75.598727 118.37784 75.33531 118.52755 75.009766 118.62305 C 74.684221 118.7142 74.259152 118.75977 73.738281 118.75977 L 72.652344 118.75977 L 72.652344 114.88672 z "
         d="m 53.300781,113.7793 v 9.69531 h 1.289063 v -3.61328 h 1.289062 c 0.694495,0 1.270801,-0.0831 1.726563,-0.24805 0.455762,-0.16928 0.851321,-0.42163 1.185547,-0.75586 0.269116,-0.26911 0.477419,-0.58461 0.625,-0.94922 0.15192,-0.36895 0.226562,-0.7695 0.226562,-1.19922 0,-0.56427 -0.10068,-1.02948 -0.304687,-1.39843 -0.199668,-0.36895 -0.484566,-0.67837 -0.853516,-0.92578 -0.312523,-0.20835 -0.670544,-0.35959 -1.074219,-0.45508 -0.403675,-0.0998 -0.896876,-0.15039 -1.478515,-0.15039 z m 8.041016,0 v 9.69531 h 1.289062 v -4.74609 h 4.837891 v 4.74609 h 1.289062 V 113.7793 H 67.46875 v 3.80273 h -4.837891 v -3.80273 z m 10.021484,0 v 9.69531 h 1.289063 v -3.61328 h 1.289062 c 0.694495,0 1.268847,-0.0831 1.72461,-0.24805 0.455762,-0.16928 0.851321,-0.42163 1.185546,-0.75586 0.269117,-0.26911 0.47742,-0.58461 0.625,-0.94922 0.151922,-0.36895 0.228516,-0.7695 0.228516,-1.19922 0,-0.56427 -0.102633,-1.02948 -0.30664,-1.39843 -0.199669,-0.36895 -0.484566,-0.67837 -0.853516,-0.92578 -0.312523,-0.20835 -0.670544,-0.35959 -1.074219,-0.45508 -0.403675,-0.0998 -0.896877,-0.15039 -1.478515,-0.15039 z m -16.773437,1.10742 h 1.277344 c 0.408014,0 0.744989,0.031 1.009765,0.0918 0.269117,0.0564 0.506495,0.15059 0.714844,0.28515 0.238732,0.15626 0.41796,0.35806 0.535156,0.60547 0.117196,0.24741 0.175781,0.53882 0.175781,0.87305 0,0.28648 -0.04405,0.54534 -0.130859,0.77539 -0.08247,0.23005 -0.225681,0.4479 -0.429687,0.65625 -0.204009,0.20401 -0.469378,0.35372 -0.794922,0.44922 -0.325545,0.0911 -0.748661,0.13672 -1.269532,0.13672 h -1.08789 z m 18.0625,0 h 1.27539 c 0.408016,0 0.74499,0.031 1.009766,0.0918 0.269117,0.0564 0.508448,0.15059 0.716797,0.28515 0.238732,0.15626 0.416007,0.35806 0.533203,0.60547 0.117196,0.24741 0.175781,0.53882 0.175781,0.87305 0,0.28648 -0.04405,0.54534 -0.130859,0.77539 -0.08247,0.23005 -0.22568,0.4479 -0.429688,0.65625 -0.204007,0.20401 -0.467424,0.35372 -0.792968,0.44922 -0.325545,0.0911 -0.750614,0.13672 -1.271485,0.13672 h -1.085937 z"
         transform="matrix(1.025039,0,0,0.97557262,-1.4830227,-0.88981358)" />
      <path
         id="text5-2"
         style="font-size:13.3343px;fill:#ffffff;fill-opacity:1;stroke:#803300;stroke-width:0;stroke-opacity:0"
         sodipodi:type="inkscape:offset"
         inkscape:radius="0"
         inkscape:original="M 53.300781 113.7793 L 53.300781 123.47461 L 54.589844 123.47461 L 54.589844 119.86133 L 55.878906 119.86133 C 56.573401 119.86133 57.149707 119.77822 57.605469 119.61328 C 58.061231 119.444 58.45679 119.19165 58.791016 118.85742 C 59.060132 118.58831 59.268435 118.27281 59.416016 117.9082 C 59.567936 117.53925 59.642578 117.1387 59.642578 116.70898 C 59.642578 116.14471 59.541898 115.6795 59.337891 115.31055 C 59.138223 114.9416 58.853325 114.63218 58.484375 114.38477 C 58.171852 114.17642 57.813831 114.02518 57.410156 113.92969 C 57.006481 113.82985 56.51328 113.7793 55.931641 113.7793 L 53.300781 113.7793 z M 61.341797 113.7793 L 61.341797 123.47461 L 62.630859 123.47461 L 62.630859 118.72852 L 67.46875 118.72852 L 67.46875 123.47461 L 68.757812 123.47461 L 68.757812 113.7793 L 67.46875 113.7793 L 67.46875 117.58203 L 62.630859 117.58203 L 62.630859 113.7793 L 61.341797 113.7793 z M 71.363281 113.7793 L 71.363281 123.47461 L 72.652344 123.47461 L 72.652344 119.86133 L 73.941406 119.86133 C 74.635901 119.86133 75.210253 119.77822 75.666016 119.61328 C 76.121778 119.444 76.517337 119.19165 76.851562 118.85742 C 77.120679 118.58831 77.328982 118.27281 77.476562 117.9082 C 77.628484 117.53925 77.705078 117.1387 77.705078 116.70898 C 77.705078 116.14471 77.602445 115.6795 77.398438 115.31055 C 77.198769 114.9416 76.913872 114.63218 76.544922 114.38477 C 76.232399 114.17642 75.874378 114.02518 75.470703 113.92969 C 75.067028 113.82985 74.573826 113.7793 73.992188 113.7793 L 71.363281 113.7793 z M 54.589844 114.88672 L 55.867188 114.88672 C 56.275202 114.88672 56.612177 114.91775 56.876953 114.97852 C 57.14607 115.03494 57.383448 115.12911 57.591797 115.26367 C 57.830529 115.41993 58.009757 115.62173 58.126953 115.86914 C 58.244149 116.11655 58.302734 116.40796 58.302734 116.74219 C 58.302734 117.02867 58.258687 117.28753 58.171875 117.51758 C 58.089404 117.74763 57.946194 117.96548 57.742188 118.17383 C 57.538179 118.37784 57.27281 118.52755 56.947266 118.62305 C 56.621721 118.7142 56.198605 118.75977 55.677734 118.75977 L 54.589844 118.75977 L 54.589844 114.88672 z M 72.652344 114.88672 L 73.927734 114.88672 C 74.33575 114.88672 74.672724 114.91775 74.9375 114.97852 C 75.206617 115.03494 75.445948 115.12911 75.654297 115.26367 C 75.893029 115.41993 76.070304 115.62173 76.1875 115.86914 C 76.304696 116.11655 76.363281 116.40796 76.363281 116.74219 C 76.363281 117.02867 76.319234 117.28753 76.232422 117.51758 C 76.149951 117.74763 76.006742 117.96548 75.802734 118.17383 C 75.598727 118.37784 75.33531 118.52755 75.009766 118.62305 C 74.684221 118.7142 74.259152 118.75977 73.738281 118.75977 L 72.652344 118.75977 L 72.652344 114.88672 z "
         d="m 53.300781,113.7793 v 9.69531 h 1.289063 v -3.61328 h 1.289062 c 0.694495,0 1.270801,-0.0831 1.726563,-0.24805 0.455762,-0.16928 0.851321,-0.42163 1.185547,-0.75586 0.269116,-0.26911 0.477419,-0.58461 0.625,-0.94922 0.15192,-0.36895 0.226562,-0.7695 0.226562,-1.19922 0,-0.56427 -0.10068,-1.02948 -0.304687,-1.39843 -0.199668,-0.36895 -0.484566,-0.67837 -0.853516,-0.92578 -0.312523,-0.20835 -0.670544,-0.35959 -1.074219,-0.45508 -0.403675,-0.0998 -0.896876,-0.15039 -1.478515,-0.15039 z m 8.041016,0 v 9.69531 h 1.289062 v -4.74609 h 4.837891 v 4.74609 h 1.289062 V 113.7793 H 67.46875 v 3.80273 h -4.837891 v -3.80273 z m 10.021484,0 v 9.69531 h 1.289063 v -3.61328 h 1.289062 c 0.694495,0 1.268847,-0.0831 1.72461,-0.24805 0.455762,-0.16928 0.851321,-0.42163 1.185546,-0.75586 0.269117,-0.26911 0.47742,-0.58461 0.625,-0.94922 0.151922,-0.36895 0.228516,-0.7695 0.228516,-1.19922 0,-0.56427 -0.102633,-1.02948 -0.30664,-1.39843 -0.199669,-0.36895 -0.484566,-0.67837 -0.853516,-0.92578 -0.312523,-0.20835 -0.670544,-0.35959 -1.074219,-0.45508 -0.403675,-0.0998 -0.896877,-0.15039 -1.478515,-0.15039 z m -16.773437,1.10742 h 1.277344 c 0.408014,0 0.744989,0.031 1.009765,0.0918 0.269117,0.0564 0.506495,0.15059 0.714844,0.28515 0.238732,0.15626 0.41796,0.35806 0.535156,0.60547 0.117196,0.24741 0.175781,0.53882 0.175781,0.87305 0,0.28648 -0.04405,0.54534 -0.130859,0.77539 -0.08247,0.23005 -0.225681,0.4479 -0.429687,0.65625 -0.204009,0.20401 -0.469378,0.35372 -0.794922,0.44922 -0.325545,0.0911 -0.748661,0.13672 -1.269532,0.13672 h -1.08789 z m 18.0625,0 h 1.27539 c 0.408016,0 0.74499,0.031 1.009766,0.0918 0.269117,0.0564 0.508448,0.15059 0.716797,0.28515 0.238732,0.15626 0.416007,0.35806 0.533203,0.60547 0.117196,0.24741 0.175781,0.53882 0.175781,0.87305 0,0.28648 -0.04405,0.54534 -0.130859,0.77539 -0.08247,0.23005 -0.22568,0.4479 -0.429688,0.65625 -0.204007,0.20401 -0.467424,0.35372 -0.792968,0.44922 -0.325545,0.0911 -0.750614,0.13672 -1.271485,0.13672 h -1.085937 z"
         transform="matrix(1.025039,0,0,0.97557262,-2.1293802,-1.5208996)" />
    </g>
    <text
       xml:space="preserve"
       style="font-size:16.9333px;opacity:1;fill:#000000;fill-opacity:1;stroke:#000000;stroke-width:0;stroke-dasharray:none;stroke-dashoffset:0;stroke-opacity:1;paint-order:markers stroke fill"
       x="100.17185"
       y="24.08647"
       id="text23"><tspan
         sodipodi:role="line"
         id="tspan23"
         style="font-style:normal;font-variant:normal;font-weight:normal;font-stretch:normal;font-size:16.9333px;font-family:Bahnschrift;-inkscape-font-specification:Bahnschrift;fill:#ffffff;stroke-width:0;stroke-dasharray:none"
         x="100.17185"
         y="24.08647">pure</tspan></text>
  </g>
</svg>
